<svg width="16" height="12" viewBox="0 0 16 12" fill="none" xmlns="http://www.w3.org/2000/svg">
<rect width="16" height="12" fill="#41479B"/>
<path d="M7.95516 1.09085C7.9735 1.05369 8.0265 1.05369 8.04484 1.09085L8.28226 1.57192C8.28954 1.58668 8.30362 1.59691 8.31991 1.59927L8.8508 1.67641C8.89181 1.68237 8.90818 1.73277 8.87851 1.7617L8.49435 2.13616C8.48257 2.14765 8.47719 2.1642 8.47997 2.18042L8.57066 2.70916C8.57766 2.75001 8.53479 2.78116 8.49811 2.76187L8.02327 2.51223C8.0087 2.50457 7.9913 2.50457 7.97673 2.51223L7.50189 2.76187C7.46521 2.78116 7.42234 2.75001 7.42934 2.70916L7.52003 2.18042C7.52281 2.1642 7.51743 2.14765 7.50565 2.13616L7.12149 1.7617C7.09182 1.73277 7.10819 1.68237 7.1492 1.67641L7.68009 1.59927C7.69638 1.59691 7.71046 1.58668 7.71774 1.57192L7.95516 1.09085Z" fill="#FFDE49"/>
<path d="M7.95516 9.09085C7.9735 9.05369 8.0265 9.05369 8.04484 9.09085L8.28226 9.57192C8.28954 9.58668 8.30362 9.59691 8.31991 9.59927L8.8508 9.67641C8.89181 9.68237 8.90818 9.73277 8.87851 9.7617L8.49435 10.1362C8.48257 10.1476 8.47719 10.1642 8.47997 10.1804L8.57066 10.7092C8.57766 10.75 8.53479 10.7812 8.49811 10.7619L8.02327 10.5122C8.0087 10.5046 7.9913 10.5046 7.97673 10.5122L7.50189 10.7619C7.46521 10.7812 7.42234 10.75 7.42934 10.7092L7.52003 10.1804C7.52281 10.1642 7.51743 10.1476 7.50565 10.1362L7.12149 9.7617C7.09182 9.73277 7.10819 9.68237 7.1492 9.67641L7.68009 9.59927C7.69638 9.59691 7.71046 9.58668 7.71774 9.57192L7.95516 9.09085Z" fill="#FFDE49"/>
<path d="M3.95516 5.09085C3.9735 5.05369 4.0265 5.05369 4.04484 5.09085L4.28226 5.57192C4.28954 5.58668 4.30362 5.59691 4.31991 5.59927L4.8508 5.67641C4.89181 5.68237 4.90818 5.73277 4.87851 5.7617L4.49435 6.13616C4.48257 6.14765 4.47719 6.1642 4.47997 6.18042L4.57066 6.70916C4.57766 6.75001 4.53479 6.78116 4.49811 6.76187L4.02327 6.51223C4.0087 6.50457 3.9913 6.50457 3.97673 6.51223L3.50189 6.76187C3.46521 6.78116 3.42234 6.75001 3.42934 6.70916L3.52003 6.18042C3.52281 6.1642 3.51743 6.14765 3.50565 6.13616L3.12149 5.7617C3.09182 5.73277 3.10819 5.68237 3.1492 5.67641L3.68009 5.59927C3.69638 5.59691 3.71046 5.58668 3.71774 5.57192L3.95516 5.09085Z" fill="#FFDE49"/>
<path d="M11.9552 5.09085C11.9735 5.05369 12.0265 5.05369 12.0448 5.09085L12.2823 5.57192C12.2895 5.58668 12.3036 5.59691 12.3199 5.59927L12.8508 5.67641C12.8918 5.68237 12.9082 5.73277 12.8785 5.7617L12.4944 6.13616C12.4826 6.14765 12.4772 6.1642 12.48 6.18042L12.5707 6.70916C12.5777 6.75001 12.5348 6.78116 12.4981 6.76187L12.0233 6.51223C12.0087 6.50457 11.9913 6.50457 11.9767 6.51223L11.5019 6.76187C11.4652 6.78116 11.4223 6.75001 11.4293 6.70916L11.52 6.18042C11.5228 6.1642 11.5174 6.14765 11.5056 6.13616L11.1215 5.7617C11.0918 5.73277 11.1082 5.68237 11.1492 5.67641L11.6801 5.59927C11.6964 5.59691 11.7105 5.58668 11.7177 5.57192L11.9552 5.09085Z" fill="#FFDE49"/>
<path d="M9.95516 1.62674C9.9735 1.58958 10.0265 1.58958 10.0448 1.62674L10.2823 2.10781C10.2895 2.12257 10.3036 2.13279 10.3199 2.13516L10.8508 2.2123C10.8918 2.21826 10.9082 2.26866 10.8785 2.29759L10.4944 2.67205C10.4826 2.68354 10.4772 2.70009 10.48 2.71631L10.5707 3.24505C10.5777 3.2859 10.5348 3.31705 10.4981 3.29776L10.0233 3.04812C10.0087 3.04046 9.9913 3.04046 9.97673 3.04812L9.50189 3.29776C9.46521 3.31705 9.42234 3.2859 9.42934 3.24505L9.52003 2.71631C9.52281 2.70009 9.51743 2.68354 9.50565 2.67205L9.12149 2.29759C9.09182 2.26866 9.10819 2.21826 9.1492 2.2123L9.68009 2.13516C9.69638 2.13279 9.71046 2.12257 9.71774 2.10781L9.95516 1.62674Z" fill="#FFDE49"/>
<path d="M5.95516 8.55496C5.9735 8.5178 6.0265 8.5178 6.04484 8.55496L6.28226 9.03603C6.28954 9.05079 6.30362 9.06102 6.31991 9.06338L6.8508 9.14053C6.89181 9.14649 6.90818 9.19688 6.87851 9.22581L6.49435 9.60027C6.48257 9.61176 6.47719 9.62831 6.47997 9.64453L6.57066 10.1733C6.57766 10.2141 6.53479 10.2453 6.49811 10.226L6.02327 9.97634C6.0087 9.96869 5.9913 9.96869 5.97673 9.97634L5.50189 10.226C5.46521 10.2453 5.42234 10.2141 5.42934 10.1733L5.52003 9.64453C5.52281 9.62831 5.51743 9.61176 5.50565 9.60027L5.12149 9.22581C5.09182 9.19688 5.10819 9.14649 5.1492 9.14053L5.68009 9.06338C5.69638 9.06102 5.71046 9.05079 5.71774 9.03603L5.95516 8.55496Z" fill="#FFDE49"/>
<path d="M4.49105 3.09085C4.50939 3.05369 4.56238 3.05369 4.58073 3.09085L4.81815 3.57192C4.82543 3.58668 4.83951 3.59691 4.85579 3.59927L5.38669 3.67641C5.4277 3.68237 5.44407 3.73277 5.4144 3.7617L5.03024 4.13616C5.01846 4.14765 5.01308 4.1642 5.01586 4.18042L5.10655 4.70916C5.11355 4.75001 5.07068 4.78116 5.034 4.76187L4.55916 4.51223C4.54459 4.50457 4.52719 4.50457 4.51262 4.51223L4.03778 4.76187C4.0011 4.78116 3.95822 4.75001 3.96523 4.70916L4.05592 4.18042C4.0587 4.1642 4.05332 4.14765 4.04154 4.13616L3.65738 3.7617C3.6277 3.73277 3.64408 3.68237 3.68509 3.67641L4.21598 3.59927C4.23227 3.59691 4.24635 3.58668 4.25363 3.57192L4.49105 3.09085Z" fill="#FFDE49"/>
<path d="M11.4193 7.09085C11.4376 7.05369 11.4906 7.05369 11.5089 7.09085L11.7464 7.57192C11.7537 7.58668 11.7677 7.59691 11.784 7.59927L12.3149 7.67641C12.3559 7.68237 12.3723 7.73277 12.3426 7.7617L11.9585 8.13616C11.9467 8.14765 11.9413 8.1642 11.9441 8.18042L12.0348 8.70916C12.0418 8.75001 11.9989 8.78116 11.9622 8.76187L11.4874 8.51223C11.4728 8.50457 11.4554 8.50457 11.4408 8.51223L10.966 8.76187C10.9293 8.78116 10.8864 8.75001 10.8935 8.70916L10.9841 8.18042C10.9869 8.1642 10.9815 8.14765 10.9698 8.13616L10.5856 7.7617C10.5559 7.73277 10.5723 7.68237 10.6133 7.67641L11.1442 7.59927C11.1605 7.59691 11.1746 7.58668 11.1819 7.57192L11.4193 7.09085Z" fill="#FFDE49"/>
<path d="M11.4193 3.09085C11.4376 3.05369 11.4906 3.05369 11.5089 3.09085L11.7464 3.57192C11.7537 3.58668 11.7677 3.59691 11.784 3.59927L12.3149 3.67641C12.3559 3.68237 12.3723 3.73277 12.3426 3.7617L11.9585 4.13616C11.9467 4.14765 11.9413 4.1642 11.9441 4.18042L12.0348 4.70916C12.0418 4.75001 11.9989 4.78116 11.9622 4.76187L11.4874 4.51223C11.4728 4.50457 11.4554 4.50457 11.4408 4.51223L10.966 4.76187C10.9293 4.78116 10.8864 4.75001 10.8935 4.70916L10.9841 4.18042C10.9869 4.1642 10.9815 4.14765 10.9698 4.13616L10.5856 3.7617C10.5559 3.73277 10.5723 3.68237 10.6133 3.67641L11.1442 3.59927C11.1605 3.59691 11.1746 3.58668 11.1819 3.57192L11.4193 3.09085Z" fill="#FFDE49"/>
<path d="M4.49105 7.09085C4.50939 7.05369 4.56238 7.05369 4.58073 7.09085L4.81815 7.57192C4.82543 7.58668 4.83951 7.59691 4.85579 7.59927L5.38669 7.67641C5.4277 7.68237 5.44407 7.73277 5.4144 7.7617L5.03024 8.13616C5.01846 8.14765 5.01308 8.1642 5.01586 8.18042L5.10655 8.70916C5.11355 8.75001 5.07068 8.78116 5.034 8.76187L4.55916 8.51223C4.54459 8.50457 4.52719 8.50457 4.51262 8.51223L4.03778 8.76187C4.0011 8.78116 3.95822 8.75001 3.96523 8.70916L4.05592 8.18042C4.0587 8.1642 4.05332 8.14765 4.04154 8.13616L3.65738 7.7617C3.6277 7.73277 3.64408 7.68237 3.68509 7.67641L4.21598 7.59927C4.23227 7.59691 4.24635 7.58668 4.25363 7.57192L4.49105 7.09085Z" fill="#FFDE49"/>
<path d="M5.95516 1.62674C5.9735 1.58958 6.0265 1.58958 6.04484 1.62674L6.28226 2.10781C6.28954 2.12257 6.30362 2.13279 6.31991 2.13516L6.8508 2.2123C6.89181 2.21826 6.90818 2.26866 6.87851 2.29759L6.49435 2.67205C6.48257 2.68354 6.47719 2.70009 6.47997 2.71631L6.57066 3.24505C6.57766 3.2859 6.53479 3.31705 6.49811 3.29776L6.02327 3.04812C6.0087 3.04046 5.9913 3.04046 5.97673 3.04812L5.50189 3.29776C5.46521 3.31705 5.42234 3.2859 5.42934 3.24505L5.52003 2.71631C5.52281 2.70009 5.51743 2.68354 5.50565 2.67205L5.12149 2.29759C5.09182 2.26866 5.10819 2.21826 5.1492 2.2123L5.68009 2.13516C5.69638 2.13279 5.71046 2.12257 5.71774 2.10781L5.95516 1.62674Z" fill="#FFDE49"/>
<path d="M9.95516 8.55496C9.9735 8.5178 10.0265 8.5178 10.0448 8.55496L10.2823 9.03603C10.2895 9.05079 10.3036 9.06102 10.3199 9.06338L10.8508 9.14053C10.8918 9.14649 10.9082 9.19688 10.8785 9.22581L10.4944 9.60027C10.4826 9.61176 10.4772 9.62831 10.48 9.64453L10.5707 10.1733C10.5777 10.2141 10.5348 10.2453 10.4981 10.226L10.0233 9.97634C10.0087 9.96869 9.9913 9.96869 9.97673 9.97634L9.50189 10.226C9.46521 10.2453 9.42234 10.2141 9.42934 10.1733L9.52003 9.64453C9.52281 9.62831 9.51743 9.61176 9.50565 9.60027L9.12149 9.22581C9.09182 9.19688 9.10819 9.14649 9.1492 9.14053L9.68009 9.06338C9.69638 9.06102 9.71046 9.05079 9.71774 9.03603L9.95516 8.55496Z" fill="#FFDE49"/>
</svg>