<svg width="24" height="24" viewBox="0 0 24 24" fill="none" xmlns="http://www.w3.org/2000/svg">
<path fill-rule="evenodd" clip-rule="evenodd" d="M9.51875 4.39276C8.35764 4.77047 7.26582 5.42059 6.34327 6.34315L6.34327 6.34315C5.03603 7.65038 4.27577 9.29746 4.06249 11H7.05857C7.28632 8.6371 8.13696 6.37359 9.51875 4.39276ZM14.4812 4.39265C15.863 6.37351 16.7137 8.63706 16.9414 11H19.9377C19.7244 9.29747 18.9642 7.65038 17.657 6.34314C16.7343 5.4205 15.6424 4.77034 14.4812 4.39265ZM14.9305 11C14.661 8.62706 13.6505 6.35812 12 4.45918C10.3495 6.35812 9.33895 8.62706 9.06954 11H14.9305ZM9.06954 13H14.9305C14.661 15.3729 13.6505 17.6419 12 19.5408C10.3495 17.6419 9.33897 15.3729 9.06954 13ZM7.05858 13H4.0625C4.27578 14.7025 5.03604 16.3496 6.34327 17.6568L5.64182 18.3583L6.34327 17.6568C7.26582 18.5794 8.35764 19.2295 9.51877 19.6072C8.13698 17.6264 7.28633 15.3629 7.05858 13ZM14.4812 19.6073C15.863 17.6265 16.7137 15.3629 16.9414 13H19.9377C19.7245 14.7025 18.9642 16.3496 17.657 17.6568L18.3641 18.3639L17.657 17.6568C16.7343 18.5795 15.6424 19.2296 14.4812 19.6073ZM12.006 22C14.5632 21.9985 17.12 21.0222 19.0712 19.0711C22.9764 15.1658 22.9764 8.83418 19.0712 4.92894C15.166 1.02369 8.8343 1.02369 4.92906 4.92893C2.98066 6.87731 2.00435 9.42968 2.00014 11.9834L2 12L2.00014 12.0167C2.00437 14.5703 2.98067 17.1227 4.92906 19.071C6.88011 21.0221 9.43683 21.9984 11.994 22C11.998 22 12.002 22 12.006 22Z" fill="#828D96"/>
</svg>
