<svg width="18" height="16" viewBox="0 0 18 16" fill="none" xmlns="http://www.w3.org/2000/svg">
<path d="M17.1767 3.87759C16.9805 3.13853 16.4021 2.55647 15.6679 2.35894C14.3369 2 9.00001 2 9.00001 2C9.00001 2 3.66313 2 2.33216 2.35894C1.59788 2.5565 1.01957 3.13853 0.823285 3.87759C0.46666 5.21719 0.46666 8.01213 0.46666 8.01213C0.46666 8.01213 0.46666 10.8071 0.823285 12.1467C1.01957 12.8857 1.59788 13.4435 2.33216 13.6411C3.66313 14 9.00001 14 9.00001 14C9.00001 14 14.3369 14 15.6679 13.6411C16.4021 13.4435 16.9805 12.8857 17.1767 12.1467C17.5334 10.8071 17.5334 8.01213 17.5334 8.01213C17.5334 8.01213 17.5334 5.21719 17.1767 3.87759ZM7.25454 10.5497V5.47453L11.7151 8.01219L7.25454 10.5497Z" fill="#39444D"/>
</svg>
